<svg width="24" height="28" viewBox="0 0 24 28" fill="none" xmlns="http://www.w3.org/2000/svg">
<path d="M23.1135 4.30552C22.9445 4.13752 22.7455 4.05302 22.5155 4.05302C22.401 4.05302 22.1595 4.14702 21.7925 4.33252C21.425 4.51852 21.035 4.72552 20.6245 4.95652C20.213 5.18602 19.726 5.39402 19.164 5.58002C18.6025 5.76552 18.0825 5.85952 17.604 5.85952C17.162 5.85952 16.772 5.77552 16.436 5.60702C15.3215 5.08502 14.352 4.69552 13.529 4.43852C12.706 4.18202 11.821 4.05302 10.8735 4.05302C9.2375 4.05302 7.374 4.58502 5.285 5.64702C4.854 5.86202 4.545 6.02852 4.345 6.15052L4.1465 4.69502C4.595 4.30552 4.8845 3.73802 4.8845 3.09752C4.8845 1.92402 3.9335 0.973022 2.76 0.973022C1.5865 0.973022 0.635502 1.92402 0.635502 3.09752C0.635502 3.86302 1.0445 4.52852 1.6515 4.90252L4.5215 25.9475C4.607 26.574 5.143 27.0285 5.7585 27.0285C5.8145 27.0285 5.8715 27.025 5.929 27.0175C6.613 26.9235 7.092 26.294 6.9985 25.61L5.845 17.1515C7.938 16.113 9.7485 15.5895 11.2715 15.5895C11.918 15.5895 12.5485 15.686 13.163 15.881C13.778 16.0765 14.2895 16.2885 14.6965 16.518C15.1035 16.748 15.584 16.961 16.1365 17.155C16.69 17.35 17.2365 17.4475 17.776 17.4475C19.139 17.4475 20.7715 16.934 22.674 15.9075C22.913 15.7835 23.088 15.6615 23.1985 15.542C23.309 15.4225 23.3645 15.2525 23.3645 15.0315V4.90302C23.3645 4.67352 23.281 4.47402 23.1135 4.30552Z" fill="#F0145A"/>
</svg>
