<svg width="156" height="63" viewBox="0 0 156 63" fill="none" xmlns="http://www.w3.org/2000/svg">
<path d="M10.8513 57.5913C10.8513 56.4799 10.4699 55.5429 9.71807 54.7692C8.96624 53.9956 8.05097 53.6143 6.98316 53.6143C6.01341 53.6143 5.17441 53.9193 4.46617 54.5404C3.76882 55.1506 3.33298 55.8915 3.16953 56.7741H2.13441V53.7777H0.5V61.4049H2.13441V58.2996H3.16953C3.33298 59.2257 3.76882 60.0102 4.46617 60.6313C5.16351 61.2524 6.00251 61.5684 6.98316 61.5684C8.05097 61.5684 8.96624 61.187 9.71807 60.4134C10.4699 59.6507 10.8513 58.7027 10.8513 57.5913ZM9.21685 57.5913C9.21685 58.3105 8.99893 58.9097 8.56309 59.3783C8.11635 59.8577 7.59334 60.0974 6.98316 60.0974C6.37298 60.0974 5.84997 59.8577 5.41412 59.3783C4.96738 58.9097 4.74946 58.3105 4.74946 57.5913C4.74946 56.8722 4.96738 56.2729 5.41412 55.7935C5.84997 55.3249 6.37298 55.0852 6.98316 55.0852C7.59334 55.0852 8.11635 55.3249 8.56309 55.7935C8.99893 56.2729 9.21685 56.8722 9.21685 57.5913Z" fill="#46466E"/>
<path d="M13.4604 53.7783V61.4056H15.0949V58.8995H16.6748C17.4593 58.8995 18.1131 58.6489 18.6252 58.1585C19.1373 57.6682 19.3988 57.058 19.3988 56.3389C19.3988 55.6089 19.1373 55.0096 18.6252 54.5084C18.1022 54.018 17.4593 53.7783 16.6748 53.7783H13.4604ZM16.6203 55.2493C16.9472 55.2493 17.2196 55.3582 17.4375 55.5653C17.6554 55.7723 17.7644 56.0338 17.7644 56.3389C17.7644 56.644 17.6554 56.9055 17.4375 57.1125C17.2196 57.3195 16.9472 57.4285 16.6203 57.4285H15.0949V55.2493H16.6203Z" fill="#46466E"/>
<path d="M28.7617 61.4056V53.7783H27.3452L23.5861 58.6271V53.7783H21.9517V61.4056H23.3681L27.1273 56.5568V61.4056H28.7617Z" fill="#46466E"/>
<path d="M30.8247 59.9346V62.9855H32.4591V61.4056H37.0355V62.9855H38.6699V59.9346H37.7437V53.7783H32.4591V56.121C32.4591 56.6331 32.4155 57.1125 32.3284 57.5593C32.2412 58.0169 32.1431 58.3765 32.0451 58.6489C31.9361 58.9104 31.8162 59.1501 31.6746 59.3789C31.533 59.5968 31.4458 59.7385 31.3913 59.8038C31.3259 59.8583 31.2932 59.9128 31.2605 59.9346H30.8247ZM34.0935 56.121V55.2493H36.1093V59.9346H32.895L33.0257 59.8038C33.102 59.7167 33.2 59.575 33.3199 59.368C33.4398 59.161 33.5487 58.9213 33.6686 58.6489C33.7884 58.3765 33.8865 58.006 33.9628 57.5593C34.0499 57.1125 34.0935 56.6331 34.0935 56.121Z" fill="#46466E"/>
<path d="M47.8115 61.4056V53.7783H46.395L42.6359 58.6271V53.7783H41.0015V61.4056H42.418L46.1771 56.5568V61.4056H47.8115Z" fill="#46466E"/>
<path d="M52.3815 53.7783H50.7471V56.121C50.7471 57.0362 50.9868 57.7445 51.4662 58.2457C51.9565 58.7578 52.6212 59.0084 53.4711 59.0084C54.2011 59.0084 54.8004 58.8668 55.2689 58.5726V61.4056H56.9033V53.7783H55.2689V56.9927L55.0837 57.1343C54.9638 57.2215 54.7786 57.3086 54.528 57.4067C54.2774 57.4939 54.0159 57.5375 53.7435 57.5375C53.3076 57.5375 52.9699 57.4176 52.7302 57.1779C52.5013 56.9273 52.3815 56.5786 52.3815 56.121V53.7783Z" fill="#46466E"/>
<path d="M66.4859 53.7783H64.8515V56.8292H61.5827V53.7783H59.9482V61.4056H61.5827V58.3002H64.8515V61.4056H66.4859V53.7783Z" fill="#46466E"/>
<path d="M73.4549 58.1912H71.6026L72.5288 55.6851L73.4549 58.1912ZM73.9997 59.6077L74.6535 61.4056H76.3969L73.4004 53.7783H71.6571L68.6606 61.4056H70.404L71.0578 59.6077H73.9997Z" fill="#46466E"/>
<path d="M83.5221 53.7783H81.8877V61.4056H83.5221V59.2263L84.5027 58.1367L86.7364 61.4056H88.6432L85.5924 56.9382L88.4253 53.7783H86.5185L83.5221 57.1016V53.7783Z" fill="#46466E"/>
<path d="M91.9614 57.5913C91.9614 56.894 92.2011 56.2947 92.6805 55.8153C93.149 55.3249 93.7265 55.0852 94.413 55.0852C95.0994 55.0852 95.6769 55.3249 96.1454 55.8153C96.6249 56.2947 96.8646 56.894 96.8646 57.5913C96.8646 58.2996 96.6249 58.888 96.1454 59.3674C95.6769 59.8577 95.0994 60.0974 94.413 60.0974C93.7265 60.0974 93.149 59.8577 92.6805 59.3674C92.2011 58.888 91.9614 58.2996 91.9614 57.5913ZM90.2725 57.5913C90.2725 58.6809 90.6756 59.6289 91.471 60.4025C92.2664 61.1761 93.2471 61.5684 94.413 61.5684C95.5788 61.5684 96.5595 61.1761 97.3549 60.4025C98.1503 59.6289 98.5535 58.6809 98.5535 57.5913C98.5535 56.4908 98.1503 55.5538 97.3549 54.7801C96.5595 54.0065 95.5788 53.6143 94.413 53.6143C93.2471 53.6143 92.2664 54.0065 91.471 54.7801C90.6756 55.5538 90.2725 56.4908 90.2725 57.5913Z" fill="#46466E"/>
<path d="M105.249 57.1016L102.634 53.7783H101.163V61.4056H102.797V56.3389L105.249 59.4443L107.7 56.3171V61.4056H109.335V53.7783H107.885L105.249 57.1016Z" fill="#46466E"/>
<path d="M118.86 53.7783H112.376V61.4056H114.011V55.2493H117.225V61.4056H118.86V53.7783Z" fill="#46466E"/>
<path d="M125.83 58.1912H123.978L124.904 55.6851L125.83 58.1912ZM126.375 59.6077L127.028 61.4056H128.772L125.775 53.7783H124.032L121.036 61.4056H122.779L123.433 59.6077H126.375Z" fill="#46466E"/>
<path d="M137.483 53.7783H135.849V56.8292H132.58V53.7783H130.945V61.4056H132.58V58.3002H135.849V61.4056H137.483V53.7783Z" fill="#46466E"/>
<path d="M142.162 53.7783H140.527V61.4056H142.162V53.7783Z" fill="#46466E"/>
<path d="M150.873 53.7783H147.495C146.732 53.7783 146.111 54.018 145.621 54.4975C145.13 54.9769 144.88 55.5762 144.88 56.2844C144.88 56.5895 144.934 56.8728 145.021 57.1452C145.12 57.4176 145.228 57.6246 145.359 57.7772C145.479 57.9297 145.61 58.0714 145.773 58.2021C145.926 58.3329 146.035 58.42 146.1 58.4527C146.155 58.4745 146.209 58.5072 146.242 58.5181L144.607 61.4056H146.351L147.822 58.736H149.238V61.4056H150.873V53.7783ZM146.514 56.2844C146.514 55.9793 146.612 55.7396 146.808 55.5435C147.005 55.3474 147.255 55.2493 147.549 55.2493H149.238V57.2651H147.549C147.255 57.2651 147.005 57.167 146.808 56.9818C146.612 56.7965 146.514 56.5568 146.514 56.2844Z" fill="#46466E"/>
<path d="M5.48113 0.5H0.5V36.4749H5.48113V23.1286C5.48113 20.8707 6.04273 19.0895 7.16593 17.8352C8.28912 16.5808 9.82741 15.9286 11.732 15.9286C13.3679 15.9286 14.7353 16.5307 15.8341 17.6847C16.9329 18.8638 17.4944 20.3439 17.4944 22.1251V36.5H22.5V22.1251C22.5 18.8136 21.5966 16.2045 19.7897 14.2477C17.9828 12.2909 15.6143 11.3125 12.7331 11.3125C11.9029 11.3125 11.0727 11.4129 10.2669 11.6387C9.43674 11.8645 8.77747 12.1153 8.24029 12.3913C7.70311 12.6672 7.19034 12.9683 6.72642 13.3195C6.26249 13.6707 5.94506 13.9216 5.79856 14.0721C5.65205 14.2226 5.52997 14.323 5.48113 14.3983V0.5Z" fill="#F0145A"/>
<path d="M33.635 0.5H28.5V36.445H33.635V0.5Z" fill="#323264"/>
<path d="M63.922 25.918L64.1788 23.3505C64.1788 19.91 63.0491 17.0344 60.7383 14.7237C58.4276 12.4129 55.552 11.2832 52.1115 11.2832C48.6711 11.2832 45.6928 12.5156 43.228 14.9804C40.7632 17.4452 39.5308 20.3722 39.5308 23.864C39.5308 27.4585 40.8145 30.5395 43.3307 33.107C45.8468 35.6745 48.8765 36.9582 52.3683 36.9582C53.7034 36.9582 54.9358 36.7528 56.1682 36.3934C57.4006 35.9826 58.4276 35.5718 59.1465 35.161C59.9167 34.6988 60.687 34.1853 61.3545 33.6205C62.0221 33.0556 62.4842 32.6448 62.6896 32.3881C62.895 32.1313 63.0491 31.9773 63.1518 31.8232L59.814 28.4855L59.0438 29.4611C58.5303 30.0773 57.6573 30.6935 56.4249 31.3611C55.1412 32.0286 53.8061 32.3367 52.3683 32.3367C50.3656 32.3367 48.6711 31.7205 47.2333 30.4368C45.7955 29.153 44.9225 27.6639 44.6658 25.918H63.922ZM52.1115 15.648C54.0115 15.648 55.552 16.2128 56.8357 17.2912C58.0681 18.4209 58.8384 19.8073 59.1465 21.5532H44.8712C45.3333 19.8073 46.1549 18.4209 47.4387 17.2912C48.6711 16.2128 50.2629 15.648 52.1115 15.648Z" fill="#323264"/>
<path d="M87.8711 34.9556C87.8711 37.215 87.2035 39.0636 85.8171 40.5014C84.482 41.8878 82.7874 42.6067 80.6821 42.6067C79.7578 42.6067 78.8335 42.4527 77.9605 42.1959C77.0876 41.9392 76.42 41.6311 75.8552 41.2716C75.2903 40.9122 74.7768 40.5527 74.2633 40.0906C73.8012 39.6284 73.4931 39.3203 73.339 39.1663C73.185 39.0122 73.0823 38.8582 72.9796 38.7555L69.6418 42.0932L70.0526 42.6067C70.3094 42.9662 70.7715 43.4283 71.3877 43.9418C72.0039 44.404 72.7228 44.9175 73.5444 45.431C74.366 45.8931 75.393 46.3039 76.6768 46.6634C77.9605 47.0228 79.2956 47.2282 80.6821 47.2282C84.1739 47.2282 87.0495 46.0472 89.4629 43.6851C91.825 41.2716 93.0061 38.396 93.0061 34.9042V11.7967H87.8711V14.3642L86.9981 13.594C86.4333 13.0805 85.5603 12.567 84.3279 12.0535C83.0955 11.54 81.7604 11.2832 80.4253 11.2832C77.293 11.2832 74.6228 12.4643 72.312 14.8777C70.0013 17.2912 68.8716 20.1668 68.8716 23.6072C68.8716 27.0477 70.0013 29.9233 72.312 32.3367C74.6228 34.7502 77.293 35.9312 80.4253 35.9312C81.2983 35.9312 82.1199 35.8285 82.9928 35.6231C83.8144 35.3664 84.482 35.1096 85.0468 34.8529C85.6117 34.5961 86.1252 34.288 86.5873 33.9286C87.0495 33.5691 87.4089 33.3124 87.5116 33.2097L87.8711 32.8502V34.9556ZM74.0066 23.6072C74.0066 21.4505 74.6741 19.6533 76.0606 18.1641C77.447 16.675 79.0902 15.9047 80.9388 15.9047C82.7874 15.9047 84.4306 16.675 85.8171 18.1641C87.1522 19.6533 87.8711 21.4505 87.8711 23.6072C87.8711 25.7639 87.1522 27.5612 85.8171 29.0503C84.4306 30.5395 82.7874 31.3097 80.9388 31.3097C79.0902 31.3097 77.447 30.5395 76.0606 29.0503C74.6741 27.5612 74.0066 25.7639 74.0066 23.6072Z" fill="#323264"/>
<path d="M119.809 36.4447V20.5262C119.809 17.9074 118.833 15.6993 116.933 13.9534C115.033 12.1562 112.568 11.2832 109.539 11.2832C108.358 11.2832 107.177 11.4373 106.047 11.7454C104.917 12.1048 103.993 12.4643 103.325 12.8751C102.658 13.2859 101.99 13.748 101.374 14.3129C100.758 14.8264 100.398 15.1858 100.193 15.3912C100.039 15.5966 99.885 15.7507 99.7823 15.9047L103.12 19.2425L103.788 18.3695C104.198 17.8047 104.917 17.2912 105.996 16.7263C107.074 16.1615 108.255 15.9047 109.539 15.9047C111.028 15.9047 112.26 16.3669 113.236 17.2398C114.212 18.1128 114.674 19.2425 114.674 20.5262L105.688 22.0667C103.479 22.4262 101.682 23.2991 100.45 24.6856C99.1661 26.072 98.4985 27.7666 98.4985 29.7692C98.4985 31.6692 99.3201 33.3124 100.963 34.7502C102.658 36.2393 104.712 36.9582 107.228 36.9582C108.101 36.9582 108.923 36.8555 109.744 36.5988C110.617 36.3934 111.285 36.1366 111.85 35.8799C112.414 35.6231 112.928 35.315 113.39 34.9556C113.852 34.5961 114.16 34.3394 114.366 34.2367C114.52 34.0826 114.622 33.9286 114.674 33.8772V36.4447H119.809ZM107.998 32.3367C106.663 32.3367 105.585 32.0286 104.815 31.4124C103.993 30.7962 103.634 30.0773 103.634 29.2557C103.634 28.3828 103.89 27.6125 104.455 27.0477C105.02 26.4828 105.79 26.072 106.715 25.918L114.674 24.6342V25.1477C114.674 27.4585 114.109 29.2044 112.928 30.4881C111.747 31.7205 110.104 32.3367 107.998 32.3367Z" fill="#323264"/>
<path d="M131.14 0.5H126.005V36.445H131.14V0.5Z" fill="#323264"/>
<path d="M154.489 14.621L154.181 14.2615C153.975 14.0561 153.667 13.7994 153.205 13.4399C152.743 13.0805 152.229 12.7724 151.664 12.4129C151.1 12.1048 150.329 11.8481 149.405 11.5913C148.481 11.3859 147.505 11.2832 146.529 11.2832C144.013 11.2832 141.959 12.0021 140.316 13.4399C138.622 14.9291 137.8 16.5723 137.8 18.4722C137.8 19.8587 138.108 20.9884 138.724 22.0154C139.34 22.991 140.111 23.7099 141.086 24.1207C142.011 24.5829 143.038 25.045 144.116 25.4045C145.194 25.7639 146.17 26.072 147.146 26.3288C148.07 26.6369 148.84 26.9963 149.456 27.4585C150.073 27.9206 150.381 28.5368 150.381 29.2557C150.381 30.18 150.021 30.9503 149.354 31.5151C148.686 32.0286 147.659 32.3367 146.273 32.3367C145.143 32.3367 144.013 32.0286 142.935 31.5151C141.857 30.9503 141.189 30.4881 140.83 30.1287C140.522 29.7692 140.265 29.4611 140.111 29.2557L136.773 32.5935L137.132 33.0556C137.389 33.3637 137.749 33.7232 138.262 34.134C138.827 34.5961 139.443 35.0069 140.111 35.4177C140.83 35.8285 141.754 36.188 142.832 36.4961C143.911 36.8042 145.092 36.9582 146.273 36.9582C148.994 36.9582 151.254 36.188 152.948 34.6988C154.643 33.2097 155.516 31.3611 155.516 29.2557C155.516 27.8693 155.208 26.6882 154.591 25.7639C153.975 24.7883 153.205 24.0694 152.229 23.6072C151.305 23.0937 150.278 22.6829 149.2 22.3235C148.121 21.964 147.146 21.6046 146.17 21.3992C145.246 21.1424 144.475 20.7316 143.859 20.2695C143.243 19.8073 142.935 19.1911 142.935 18.4722C142.935 17.8047 143.243 17.1885 143.911 16.675C144.527 16.1615 145.4 15.9047 146.529 15.9047C147.351 15.9047 148.173 16.1101 148.943 16.4696C149.765 16.829 150.329 17.1371 150.586 17.3939C150.843 17.6506 151.048 17.856 151.151 17.9587L154.489 14.621Z" fill="#323264"/>
</svg>
