<svg width="31" height="31" viewBox="0 0 31 31" fill="none" xmlns="http://www.w3.org/2000/svg">
<path d="M31 15.5C31 18.5656 30.0909 21.5624 28.3878 24.1113C26.6846 26.6603 24.2638 28.647 21.4316 29.8201C18.5993 30.9933 15.4828 31.3002 12.4761 30.7022C9.46939 30.1041 6.70756 28.6279 4.53984 26.4602C2.37213 24.2924 0.895899 21.5306 0.297828 18.5239C-0.300243 15.5172 0.00670896 12.4007 1.17987 9.56841C2.35303 6.73615 4.3397 4.31538 6.88866 2.61222C9.43762 0.909059 12.4344 -3.6557e-08 15.5 0L15.5 4.03C13.2314 4.03 11.0138 4.7027 9.12761 5.96304C7.24138 7.22338 5.77124 9.01475 4.9031 11.1106C4.03496 13.2065 3.80782 15.5127 4.25039 17.7377C4.69297 19.9626 5.78538 22.0064 7.38948 23.6105C8.99359 25.2146 11.0374 26.307 13.2623 26.7496C15.4873 27.1922 17.7935 26.965 19.8894 26.0969C21.9852 25.2288 23.7766 23.7586 25.037 21.8724C26.2973 19.9862 26.97 17.7686 26.97 15.5L31 15.5Z" fill="#24A3FF"/>
</svg>
